<svg xmlns="http://www.w3.org/2000/svg" viewBox="0 0 500 500"><g id="freepik--Shadow--inject-13"><ellipse id="freepik--path--inject-13" cx="250" cy="412.39" rx="193.89" ry="11.32" style="fill:#f5f5f5"></ellipse></g><g id="freepik--Character--inject-13"><path d="M193.28,215.42l-6.44-1.87a8.51,8.51,0,0,0-1.93-.41l-4.32-.18-3.53-1.48a1.34,1.34,0,0,0-2,1l-.23,2.38a1.36,1.36,0,0,0,.57,1.23l5.2,3.64,7.27-1.22,6.52,3.15.77-5.66Z" style="fill:#b55b52"></path><path d="M306.72,217.18l6.52-1.59a9.05,9.05,0,0,1,1.94-.33h4.32l3.59-1.32a1.33,1.33,0,0,1,2,1.09l.13,2.39a1.34,1.34,0,0,1-.61,1.2l-5.36,3.42L312,220.51l-6.65,2.87-.52-5.68Z" style="fill:#b55b52"></path><polygon points="233.84 398.44 232.3 412.59 224.57 411.77 225.36 396.34 233.84 398.44" style="fill:#b55b52"></polygon><path d="M220.93,411.91a3.29,3.29,0,0,1-2.26-.77.69.69,0,0,1,.07-.8.94.94,0,0,1,.62-.39c1.33-.26,3.95,1.5,4.06,1.58a.18.18,0,0,1,.08.2.19.19,0,0,1-.16.14A12.94,12.94,0,0,1,220.93,411.91Zm-1.14-1.61a1,1,0,0,0-.35,0,.52.52,0,0,0-.39.23c-.15.22-.11.33-.06.4.32.54,2.29.7,3.77.63A8.53,8.53,0,0,0,219.79,410.3Z" style="fill:#407BFF"></path><path d="M223.31,411.87a.11.11,0,0,1-.08,0c-.9-.48-2.66-2.32-2.42-3.19,0-.21.21-.46.72-.47a1.36,1.36,0,0,1,1,.4c.94.89,1,3,1,3.12a.18.18,0,0,1-.09.16Zm-1.68-3.32-.1,0c-.34,0-.37.14-.39.19-.09.52,1.05,1.94,2,2.59a4.36,4.36,0,0,0-.85-2.48,1,1,0,0,0-.63-.28Z" style="fill:#407BFF"></path><path d="M224.22,410.83l8.54.65a.68.68,0,0,1,.64.58l1,7.07a1.16,1.16,0,0,1-1,1.31h-.25c-3.07-.29-5.8-.66-9.63-.94-4.53-.34-3.42.29-8.75,0-3.21-.19-3.52-3.88-2.15-4,6.28-.32,7.07-2.15,9.64-4.19A2.79,2.79,0,0,1,224.22,410.83Z" style="fill:#263238"></path><polygon points="224.92 404.9 230.69 404.69 233.05 405.67 232.73 408.66 224.74 408.19 224.92 404.9" style="opacity:0.2"></polygon><path d="M253.44,255.89l-14.83,88.69L235,406.77l-11.61-.2a414.48,414.48,0,0,1-1.87-67.06c1.81-32.93,9.47-71.44,10.32-82.42l4.29-7.58,8.54,1.07Z" style="fill:#407BFF"></path><path d="M275.81,414.22l6.6-.75s-.19-2.72-.52-7.11c-.07-1-.15-2-.23-3.17l-7.58,1.35H274c0,.17.07.34.1.5.16.89.33,1.71.47,2.5C275.32,411.67,275.81,414.22,275.81,414.22Z" style="fill:#b55b52"></path><path d="M283.66,411.12a.21.21,0,0,1-.18-.13.19.19,0,0,1,.06-.2c.11-.09,2.56-2.09,3.92-1.94a1,1,0,0,1,.65.33.7.7,0,0,1,.14.8c-.25.47-1.22.81-2.18,1A15,15,0,0,1,283.66,411.12Zm.55-.35c1.48-.06,3.43-.39,3.71-1,0-.07.07-.19-.1-.39a.51.51,0,0,0-.41-.2,1.45,1.45,0,0,0-.36,0A8.81,8.81,0,0,0,284.21,410.77Z" style="fill:#407BFF"></path><path d="M283.56,411.12a.16.16,0,0,1-.11-.15c0-.1-.15-2.23.71-3.2a1.34,1.34,0,0,1,1-.48c.52,0,.72.19.77.4.31.85-1.28,2.84-2.14,3.4a.1.1,0,0,1-.07,0A.15.15,0,0,1,283.56,411.12Zm1.5-3.47a1,1,0,0,0-.59.34,4.4,4.4,0,0,0-.64,2.55c.87-.73,1.87-2.25,1.74-2.76,0,0-.07-.18-.4-.15l-.11,0Z" style="fill:#407BFF"></path><path d="M282.19,410.33l-6.74,1a.7.7,0,0,0-.58.65l-.39,7.14a1.14,1.14,0,0,0,1.07,1.22,1,1,0,0,0,.25,0c3-.56,4-.82,7.8-1.44,4.49-.74,3.44,0,8.73-.81,3.18-.49,3.17-4.19,1.79-4.15C287.83,414.21,282.85,410.19,282.19,410.33Z" style="fill:#263238"></path><path d="M274.54,407.55l7.35-1.19c-.07-1-.15-2-.23-3.17l-7.58,1.35v.51C274.23,405.94,274.4,406.76,274.54,407.55Z" style="opacity:0.2"></path><path d="M249.89,276.49l-4,23.71c-1.19-17,.4-37.23.4-37.23Z" style="opacity:0.2"></path><path d="M266.16,253.68s9.42,68.44,12.93,86.05c3.12,15.64,3.69,65.11,3.69,65.11L272.45,406s-5.9-27.22-7.85-46.36c-.68-6.68-.49-12.28-1.1-15.72-.81-4.54-27.15-77.84-22.25-89.41Z" style="fill:#407BFF"></path><path d="M231.44,244.5a50.77,50.77,0,0,0,.25-8.92c-2.37-28.3-3.22-30-3-35a2.19,2.19,0,0,1,1.47-2c19.58-6.66,34.81-3.5,39.23-1,5.89,3.32,3.54,6.87,3.47,7.88-.57,8.39-5.19,23.94-5.29,37.55,0,2,.2,6.8.33,9.46a2.19,2.19,0,0,1-1.75,2.25c-4.39.91-23.65,1.15-27.26,1-3.45-.12-5.72-.33-7.17-.52a2.18,2.18,0,0,1-1.83-2.64C230.45,250.17,231.27,246.27,231.44,244.5Z" style="fill:#263238"></path><path d="M255,181.39c-.74,4.38-.44,10.81,2.69,13.66,0,0-.06,4.46-12.3,9.58-4.62-6.28-1.34-9.25-1.34-9.25,4.87-1.28,3.69-3.27,2.76-6.65Z" style="fill:#b55b52"></path><path d="M251.67,184.34l-4.82,4.39a13.86,13.86,0,0,1,.48,2.39c1.87-.31,4.76-2,5.11-4A5.89,5.89,0,0,0,251.67,184.34Z" style="opacity:0.2;isolation:isolate"></path><path d="M260.52,173.75c-1.78,7.21-2.39,10.29-6.76,13.35-6.58,4.62-15,.84-15.45-6.76-.36-6.84,2.64-17.52,10.31-19.07a10.14,10.14,0,0,1,11.9,12.48Z" style="fill:#b55b52"></path><path d="M248,172.82c-.12.59-.52,1-.9,1s-.62-.62-.51-1.21.52-1,.9-.95S248.09,172.25,248,172.82Z" style="fill:#263238"></path><path d="M241.36,171.66c-.11.6-.52,1-.9,1s-.62-.62-.51-1.21.52-1,.9-.94S241.47,171.06,241.36,171.66Z" style="fill:#263238"></path><path d="M243.71,173.75a16.15,16.15,0,0,1-2.82,3.4,2.61,2.61,0,0,0,2.05.79Z" style="fill:#a02724"></path><path d="M245.74,180.86a5.39,5.39,0,0,1-.89-.1.17.17,0,0,1-.14-.2h0a.17.17,0,0,1,.21-.14,4.81,4.81,0,0,0,4.17-1.14.18.18,0,0,1,.26.25A5,5,0,0,1,245.74,180.86Z" style="fill:#263238"></path><path d="M251.17,171.91a.34.34,0,0,1-.37-.19,4.18,4.18,0,0,0-2.81-1.84.36.36,0,0,1-.3-.41.35.35,0,0,1,.4-.29h0a4.8,4.8,0,0,1,3.34,2.23.36.36,0,0,1-.16.47h0A.23.23,0,0,1,251.17,171.91Z" style="fill:#263238"></path><path d="M240.19,169.35a.36.36,0,0,1-.35-.11.35.35,0,0,1,0-.5,3.48,3.48,0,0,1,3.13-.93.33.33,0,0,1,.26.4v0a.35.35,0,0,1-.42.26h0a2.81,2.81,0,0,0-2.45.77A.34.34,0,0,1,240.19,169.35Z" style="fill:#263238"></path><path d="M259,194.61l-1.29-.22-7.17,3.91-2.22.08-4.26-3.62-1.43.34h0a25.27,25.27,0,0,0-.74,12.71l2.41,12.1,2.52,13.25h0l.54-1.22,2-4.56,2.74-5.2,5-12.72,1.42-5.24a22.23,22.23,0,0,0,.43-9.6Z" style="fill:#263238"></path><path d="M251.27,198.39c-7.69.07-8.54-2.76-8.54-2.76V195s-2.32,4.37,4.35,5.14,11.12-2.39,12.07-4.29h0C258.41,196.81,256.42,198.35,251.27,198.39Z" style="opacity:0.2"></path><path d="M260.24,163.84a6.62,6.62,0,0,0-1.61-3.12,2.29,2.29,0,0,0-3.18-.07,6.38,6.38,0,0,0-5.26-2.14,5.74,5.74,0,0,0-4.51,2.92c-.89,1.65-3.7,2.23-5.56,2.42,1.22,1.23,4.24,2,5.75,1.17-.37.58-2.06.89-2.75,1a9.65,9.65,0,0,0,3.63,1.29,3.24,3.24,0,0,0,3.24-1.66,2.51,2.51,0,0,0,.33,3,2.54,2.54,0,0,0,3,.48,1.43,1.43,0,0,1-1-1.47,1.67,1.67,0,0,1,1.16-1.54,3.56,3.56,0,0,0,1.27,2.37c.66.51,1.24.72,1.65,1.45s-.08,2.5-1.39,2.38c.59.63,3,.4,3.27-.42a7.32,7.32,0,0,1-3.62,4.93,4.62,4.62,0,0,1,1.4.3,2,2,0,0,1,1.27.91,2.85,2.85,0,0,1-.09,2.18,45.6,45.6,0,0,1-2.16,5.44,8.16,8.16,0,0,0,5.39-4.69,5.49,5.49,0,0,0,3.69-5.57,7.1,7.1,0,0,0,2.28-4,3.07,3.07,0,0,0-2.3-3.38,3.55,3.55,0,0,0-.54-3.6A2.41,2.41,0,0,0,260.24,163.84Z" style="fill:#263238"></path><path d="M260.22,179a5,5,0,0,1-3,2.34c-1.69.45-2.52-1.08-2-2.68.45-1.43,1.87-3.39,3.57-3.16a2.25,2.25,0,0,1,1.84,2.6A2.15,2.15,0,0,1,260.22,179Z" style="fill:#b55b52"></path><path d="M257,173.81l-4.92-.84c-.41-1.26-2.19-1.56-2.94-1.69s-2.66-.45-3.42.76l-1.71-.3c-.32-1.38-2.2-1.71-3-1.84s-3.35-.57-3.71,1.51a3.42,3.42,0,0,0,6.7,1.15,2,2,0,0,0,0-.34l1.47.25a2.66,2.66,0,0,0-.08.33,3.42,3.42,0,0,0,6.7,1.14,2.75,2.75,0,0,0,0-.49l4.76.82a2.82,2.82,0,0,1,1.67.94l.35-.3A3.29,3.29,0,0,0,257,173.81Zm-16.76.72a2.78,2.78,0,0,1-2.46-3c.2-1.14,1.14-1.48,3.17-1.14s2.81,1,2.61,2.13A2.78,2.78,0,0,1,240.22,174.53Zm8.11,1.38a2.77,2.77,0,0,1-2.45-3c.19-1.14,1.14-1.48,3.17-1.13s2.8,1,2.61,2.12A2.78,2.78,0,0,1,248.33,175.91Z" style="fill:#263238"></path><path d="M192,214.46A61.6,61.6,0,0,0,214.6,216a56.61,56.61,0,0,1,15.6-17.5L233,209s-8.34,13.25-15.09,16.3c-5.35,2.42-21.4-1.89-27.84-3.79A16.15,16.15,0,0,1,192,214.46Z" style="fill:#263238"></path><path d="M308.43,215.64a61.69,61.69,0,0,1-22.59,1,56.43,56.43,0,0,0-15.21-17.84l-3,10.43s8.05,13.44,14.74,16.63c5.29,2.53,21.43-1.43,27.91-3.18A16.23,16.23,0,0,0,308.43,215.64Z" style="fill:#263238"></path><path d="M242.76,192.79l0,2.84s.6,3.08,8.29,3,8.59-3.71,8.59-3.71l0-2.06a2.34,2.34,0,0,0-2.78-2.33,36.9,36.9,0,0,1-11.46,0A2.34,2.34,0,0,0,242.76,192.79Z" style="fill:#263238"></path></g></svg>
